# xmcd
#
# Track frame offsets:
#	150
#	13842
#	29794
#	50192
#	67957
#	83294
#	99484
#	116299
#	133157
#	150306
#	166434
#	183051
#	204726
#	223758
#
# Disc length: 3189 seconds
#
# Revision: 0
# Processed by: cddbd v1.5.2PL0 Copyright (c) Steve Scherf et al.
# Submitted via: audiograbber 1.83.01
#
DISCID=bc0c730e
DTITLE=TMStudios - HC200834
DYEAR=2008
DGENRE=Country
TTITLE0=Chris Cagle - Never Ever Gone
TTITLE1=Laura Bryna - Hometown Heroes
TTITLE2=Cory Morrow - All Said And Done [Radio Edit]
TTITLE3=Gordon Mote - Wake Up Dancin' [Album Version]
TTITLE4=Michael Scott - Ray Ray's Juke Joint [Radio Edit]
TTITLE5=Chad Brock - Put A Redneck In The Whitehouse
TTITLE6=Brandy - Right Here (Departed) [Main Version]
TTITLE7=Brandy - Right Here (Departed) [Piano Intro Version]
TTITLE8=Nina Sky - Curtain Call [Main No Rap]
TTITLE9=Michelle Williams - The Greatest
TTITLE10=Kyle Wolverton - Miss Peaches [Radio Edit]
TTITLE11=Freddie Fox - Happy Feelin's
TTITLE12=Freddie Fox - Still Lovin' You
TTITLE13=Freddie Fox - Feelin' It
EXTD=
EXTT0=
EXTT1=
EXTT2=
EXTT3=
EXTT4=
EXTT5=
EXTT6=
EXTT7=
EXTT8=
EXTT9=
EXTT10=
EXTT11=
EXTT12=
EXTT13=
PLAYORDER=
